<svg xmlns="http://www.w3.org/2000/svg" viewBox="260.03 321.31 483.94 105.37"><g style="font-style:normal;font-weight:500;font-size:72px;line-height:1;font-family:'Raleway Medium Alt1';font-variant-ligatures:none;text-align:center;text-anchor:middle"><path style="font-style:normal;font-weight:500;font-size:72px;line-height:1;font-family:'Raleway Medium Alt1';font-variant-ligatures:none;text-align:center;text-anchor:middle" d="M375.104-51.12V0h6.48v-39.528l11.448 20.448 3.456-5.904-14.544-26.136zm43.92 0-18.576 33.192-3.384 5.904 1.584 2.808h3.672l16.992-30.312V0h6.48v-51.12z" fill="#61104c" transform="matrix(1.67 0 0 1.67 -346.392 426.685)"/><path style="font-style:normal;font-weight:500;font-size:72px;line-height:1;font-family:'Raleway Medium Alt1';font-variant-ligatures:none;text-align:center;text-anchor:middle" d="m461.796-44.136-2.808 7.632 6.48 16.488h-12.816l-1.944 5.04h16.2L472.956 0h6.912zm-2.808-6.984h-5.472L432.564 0h6.624l17.064-43.632z" fill="#701a4c" transform="matrix(1.67 0 0 1.67 -346.392 426.685)"/><path style="font-style:normal;font-weight:500;font-size:72px;line-height:1;font-family:'Raleway Medium Alt1';font-variant-ligatures:none;text-align:center;text-anchor:middle" d="M494.723 0h6.48v-38.88h-6.48zm-17.64-51.12v5.76h41.76v-5.76z" fill="#7e234b" transform="matrix(1.67 0 0 1.67 -346.392 426.685)"/><path style="font-style:normal;font-weight:500;font-size:72px;line-height:1;font-family:'Raleway Medium Alt1';font-variant-ligatures:none;text-align:center;text-anchor:middle" d="M538.88 0h6.48v-38.88h-6.48zm-17.64-51.12v5.76H563v-5.76z" fill="#8d2d4b" transform="matrix(1.67 0 0 1.67 -346.392 426.685)"/><path style="font-style:normal;font-weight:500;font-size:72px;line-height:1;font-family:'Raleway Medium Alt1';font-variant-ligatures:none;text-align:center;text-anchor:middle" d="M576.772-45.36h27.576v-5.76h-34.056v15.84h6.48zm-6.48 39.6V0h34.704v-5.76zm6.48-17.64h23.976v-5.4h-30.456v16.56h6.48z" fill="#9b364a" transform="matrix(1.67 0 0 1.67 -346.392 426.685)"/><path style="font-style:normal;font-weight:500;font-size:72px;line-height:1;font-family:'Raleway Medium Alt1';font-variant-ligatures:none;text-align:center;text-anchor:middle" d="M640.526-19.584a11.253 11.253 0 0 0 4.392-2.088 14.043 14.043 0 0 0 3.384-3.456c.936-1.296 1.656-2.808 2.16-4.464.504-1.656.792-3.384.792-5.184 0-2.016-.432-3.96-1.152-5.904a18.836 18.836 0 0 0-3.24-5.256c-1.368-1.584-3.024-2.808-4.896-3.744-1.872-.936-3.96-1.44-6.192-1.44h-21.888V0h6.48v-18.36h6.48l-3.6-5.76h-2.88v-21.24h15.048c1.224 0 2.376.288 3.528.864a9.125 9.125 0 0 1 2.952 2.304 11.41 11.41 0 0 1 2.016 3.384c.504 1.296.792 2.664.792 4.032 0 1.44-.216 2.736-.648 4.032-.504 1.368-1.08 2.448-1.8 3.456-.792 1.008-1.728 1.8-2.808 2.304-1.08.576-2.304.864-3.6.864h-5.688l3.744 5.76L645.566 0h7.344z" fill="#aa404a" transform="matrix(1.67 0 0 1.67 -346.392 426.685)"/></g></svg>